# xmcd
#
# Track frame offsets:
#	150
#	18152
#	33295
#	49835
#	74270
#	91632
#	107352
#	125547
#	150812
#	168492
#	187710
#
# Disc length: 2992 seconds
#
# Revision: 1
# Processed by: cddbd v1.4b41PL1 Copyright (c) Steve Scherf et al.
# Submitted via: audiograbber 1.80
#
DISCID=710bae0b
DTITLE=The Judds - The Judds Reunion (12-31-99) Live  1 of 2
DYEAR=1900
DGENRE=
TTITLE0=The Wyld Unknown
TTITLE1=Rock Bottom
TTITLE2=Can't Nobody Love You (Like I Do)
TTITLE3=Tuff Enuff
TTITLE4=Come Some Rainy Day
TTITLE5=Had A Dream (For The Heart)
TTITLE6=Mama  He's Crazy
TTITLE7=Grandpa (Tell Me About The Good Old Days)
TTITLE8=Why Not Me
TTITLE9=Auld Lang Syne
TTITLE10=Freedom
EXTD=
EXTT0=
EXTT1=
EXTT2=
EXTT3=
EXTT4=
EXTT5=
EXTT6=
EXTT7=
EXTT8=
EXTT9=
EXTT10=
PLAYORDER=
